<?xml version="1.0" encoding="utf-8"?>
<!-- Generator: Adobe Illustrator 18.1.1, SVG Export Plug-In . SVG Version: 6.00 Build 0)  -->
<svg version="1.1" id="Layer_1" xmlns="http://www.w3.org/2000/svg" xmlns:xlink="http://www.w3.org/1999/xlink" x="0px" y="0px"
	 viewBox="0 0 1200 1200" enable-background="new 0 0 1200 1200" xml:space="preserve">
<path fill="none" stroke="#D5E3EE" stroke-width="5" stroke-miterlimit="10" d="M712.6,371.5c0,11-0.5,21.9-1.6,32.7
	c-7.5,78.2-41.6,148.6-93.2,202.1h-487c-51.6-53.5-85.7-123.9-93.2-202.1c-1-10.8-1.6-21.6-1.6-32.7c0-45.7,9-89.2,25.5-129
	C97.1,156.5,167.2,88.3,254.5,55.2v56.7c16.2-7.8,33.2-14,51-18.5v-53c9.6-2,19.3-3.6,29.2-4.7c13-1.5,26.3-2.3,39.8-2.3
	s26.7,0.8,39.8,2.3c9.9,1.2,19.7,2.8,29.3,4.8v53c17.7,4.5,34.8,10.8,51,18.6V55.2C581.9,88.4,651.9,156.8,687.4,243
	C703.6,282.6,712.6,326,712.6,371.5z"/>
<path fill="none" stroke="#D5E3EE" stroke-width="5" stroke-miterlimit="10" d="M651.9,362.2c0,74.8-29.6,142.7-77.7,192.6H174.6
	C126.5,504.9,96.9,437,96.9,362.2c0-110.3,64.4-205.6,157.6-250.3c16.2-7.8,33.2-14,51-18.5c22-5.6,45.1-8.6,68.9-8.6
	c23.8,0,47,3,69.1,8.7c17.7,4.5,34.8,10.8,51,18.6C587.6,156.8,651.9,252,651.9,362.2z"/>
<path fill="none" stroke="#D5E3EE" stroke-width="5" stroke-miterlimit="10" d="M644.3,361.1c0,72.8-28.8,138.8-75.6,187.3H180.1
	c-46.8-48.6-75.6-114.6-75.6-187.3c0-107.3,62.6-200,153.3-243.5c15.7-7.6,32.3-13.6,49.6-18c21.4-5.5,43.9-8.4,67-8.4
	c23.2,0,45.7,2.9,67.2,8.4c17.3,4.4,33.9,10.5,49.6,18.1C581.8,161.2,644.3,253.8,644.3,361.1z"/>
<path fill="#5F92B3" d="M571,501.9c16.8-34.6,26.1-73.3,26.1-114.3c0-104.3-60.8-194.4-148.9-236.7c-15.3-7.4-31.4-13.3-48.2-17.6
	c-20.9-5.4-42.8-8.2-65.4-8.2c-18.7,0-36.9,2-54.5,5.7c10.5-4.4,21.5-8,32.7-10.9c19.4-5,39.8-7.6,60.8-7.6c21,0,41.5,2.7,61,7.7
	c15.6,4,30.7,9.5,45,16.4c82.1,39.5,138.9,123.5,138.9,220.8C618.5,411.3,600.9,461.3,571,501.9z"/>
<path fill="none" stroke="#D5E3EE" stroke-width="5" stroke-miterlimit="10" d="M414.1,18.3v17.3c-13-1.5-26.3-2.3-39.8-2.3
	s-26.7,0.8-39.8,2.3V18.3c0-6.6,5.4-12,12-12h55.5C408.7,6.3,414.1,11.7,414.1,18.3z"/>
<path fill="none" stroke="#D5E3EE" stroke-width="5" stroke-miterlimit="10" d="M349.4,31.6V21.4c0-3.9,3.2-7.1,7.1-7.1h32.9
	c3.9,0,7.1,3.2,7.1,7.1v10.3"/>
<path fill="none" stroke="#D5E3EE" stroke-width="5" stroke-miterlimit="10" d="M305.5,40.3v53c-17.7,4.5-34.8,10.8-51,18.5V55.2
	C270.9,48.9,288,43.9,305.5,40.3z"/>
<path fill="none" stroke="#D5E3EE" stroke-width="5" stroke-miterlimit="10" d="M494.5,55.2V112c-16.2-7.8-33.2-14-51-18.6v-53
	C461,44,478.1,49,494.5,55.2z"/>
<path fill="none" stroke="#D5E3EE" stroke-width="5" stroke-miterlimit="10" d="M36.2,371.5c0,11,0.5,21.9,1.6,32.7H18.6
	c-6.6,0-12-5.4-12-12V254.6c0-6.6,5.4-12,12-12h43.1C45.2,282.3,36.2,325.8,36.2,371.5z"/>
<path fill="none" stroke="#D5E3EE" stroke-width="5" stroke-miterlimit="10" d="M746.7,254.6v137.6c0,6.6-5.4,12-12,12h-23.6
	c1-10.8,1.6-21.6,1.6-32.7c0-45.5-9-88.9-25.3-128.5c1-0.3,2.1-0.4,3.2-0.4h44.1C741.3,242.6,746.7,248,746.7,254.6z"/>
<circle fill="none" stroke="#D5E3EE" stroke-width="5" stroke-miterlimit="10" cx="301" cy="578.9" r="15.7"/>
<circle fill="none" stroke="#D5E3EE" stroke-width="5" stroke-miterlimit="10" cx="446.5" cy="577.8" r="15.7"/>
<circle fill="none" stroke="#D5E3EE" stroke-width="5" stroke-miterlimit="10" cx="373" cy="577.8" r="15.7"/>
<path fill="none" stroke="#D5E3EE" stroke-width="5" stroke-miterlimit="10" d="M730.5,115.4v127.1h-27V115.4
	c0-8.6,5.4-15.6,12-15.6h3C725.1,99.8,730.5,106.8,730.5,115.4z"/>
<circle fill="none" stroke="#D5E3EE" stroke-width="5" stroke-miterlimit="10" cx="716.9" cy="99.8" r="31.2"/>
<circle fill="none" stroke="#D5E3EE" stroke-width="5" stroke-miterlimit="10" cx="716.9" cy="99.8" r="18"/>
<line fill="none" stroke="#D5E3EE" stroke-width="5" stroke-miterlimit="10" x1="707.6" y1="260.4" x2="736.1" y2="260.4"/>
<line fill="none" stroke="#D5E3EE" stroke-width="5" stroke-miterlimit="10" x1="13.8" y1="260.4" x2="42.3" y2="260.4"/>
<line fill="none" stroke="#D5E3EE" stroke-width="5" stroke-miterlimit="10" x1="293.6" y1="576.9" x2="308.1" y2="576.9"/>
<line fill="none" stroke="#D5E3EE" stroke-width="5" stroke-miterlimit="10" x1="365.6" y1="576.9" x2="380.1" y2="576.9"/>
<line fill="none" stroke="#D5E3EE" stroke-width="5" stroke-miterlimit="10" x1="439.1" y1="576.9" x2="453.6" y2="576.9"/>
</svg>
